<svg xmlns="http://www.w3.org/2000/svg" xmlns:xlink="http://www.w3.org/1999/xlink" width="89" height="94" version="1.1" viewBox="0 -30 89 130"><title>Group 4</title><desc>Created with Sketch.</desc><g id="Page-1" fill="none" fill-rule="evenodd" stroke="none" stroke-width="1"><g id="Group-4" transform="translate(0.000000, 5.000000)"><g id="Group-2"><path id="Path-2" stroke="#FFF" stroke-width="10" d="M26,31.7622878 L26,18.7930441 L26,18.7930441 C26,8.41393246 34.4139325,1.90661189e-15 44.7930441,0 L44.7930441,0 L44.7930441,0 C55.1721558,-1.90661189e-15 63.5860883,8.41393246 63.5860883,18.7930441 L63.5860883,31.3821271" opacity=".691"/><path id="Combined-Shape" fill="#FFF" d="M6,29 L83,29 C86.3137085,29 89,31.6862915 89,35 L89,83 C89,86.3137085 86.3137085,89 83,89 L6,89 C2.6862915,89 4.05812251e-16,86.3137085 0,83 L0,35 L0,35 C-4.05812251e-16,31.6862915 2.6862915,29 6,29 L6,29 Z M46,81.8813559 C58.1502645,81.8813559 68,71.8646758 68,59.5084746 C68,47.1522734 58.1502645,37.1355932 46,37.1355932 C33.8497355,37.1355932 24,47.1522734 24,59.5084746 C24,71.8646758 33.8497355,81.8813559 46,81.8813559 Z"/></g><polyline id="Path-3" stroke="#FFF" stroke-linecap="round" stroke-width="4" points="45.788 46.131 45.788 61.85 58.84 55.637"/></g></g></svg>