<svg xmlns="http://www.w3.org/2000/svg" xmlns:xlink="http://www.w3.org/1999/xlink" width="107" height="93" version="1.1" viewBox="0 0 107 93"><title>Group 7</title><desc>Created with Sketch.</desc><defs><polygon id="path-1" points="0 12.172 26.62 41.538 54 12.172 45.128 0 9.436 0"/></defs><g id="ICONS" fill="none" fill-rule="evenodd" stroke="none" stroke-width="1"><g id="Group-7"><g id="Group-4-Copy-2"><rect id="path-1" width="60.229" height="91.229" x=".886" y=".886" fill="#DCE3EE" rx="30.114"/><rect id="Rectangle-33-Copy-7" width="21.257" height="21.257" x="20.371" y="46.057" stroke="#9EAFBF" stroke-width="4" rx="10.629"/><rect id="Rectangle-path" width="58" height="89" x="2" y="2" stroke="#9EAFBF" stroke-width="4" rx="29"/><ellipse id="Oval-2" cx="31.886" cy="18.6" stroke="#9EAFBF" stroke-width="5" rx="24.957" ry="16.1"/></g><g id="Group-6" transform="translate(50.000000, 38.000000)"><g id="Path-2"><use fill="#BAC9D5" fill-rule="evenodd" xlink:href="#path-1"/><path stroke="#9EAFBF" stroke-width="2" d="M-1.30420209,12.222213 L8.94570298,-1 L45.6363423,-1 L55.2943884,12.2501135 L26.6100533,43.0159871 L-1.30420209,12.222213 Z"/></g><polygon id="Path-3" fill="#FFF" fill-opacity=".4" points="26.658 1.038 16.615 12.463 27.113 41.538 37.385 12.247"/><polygon id="Path-3" fill="#FFF" fill-opacity=".43" points="26.623 1.038 16.615 12.462 37.385 12.267"/><polygon id="Path-4" fill="#FFF" fill-opacity=".34" points="36.346 12.311 44.856 0 54 12.462"/><polygon id="Path-4" fill="#FFF" fill-opacity=".34" points="0 12.354 9.603 0 16.615 12.462"/></g></g></g></svg>